<svg xmlns="http://www.w3.org/2000/svg" viewBox="0 0 64 64" shape-rendering="crispEdges">
  <rect width="64" height="64" rx="12" fill="#0d1117"/>
  <rect x="6"  y="6"  width="2" height="2" fill="#fff8c0"/>
  <rect x="52" y="8"  width="2" height="2" fill="#fff8c0"/>
  <rect x="30" y="4"  width="2" height="2" fill="#fff8c0"/>
  <rect x="44" y="11" width="2" height="2" fill="#c8e0ff" opacity="0.7"/>
  <rect x="8"  y="16" width="48" height="22" fill="#7c3aed"/>
  <rect x="8"  y="16" width="48" height="3"  fill="#9d5cf6"/>
  <rect x="8"  y="35" width="48" height="3"  fill="#5b21b6"/>
  <rect x="8"  y="34" width="16" height="20" fill="#7c3aed"/>
  <rect x="8"  y="34" width="3"  height="20" fill="#9d5cf6"/>
  <rect x="8"  y="52" width="16" height="2"  fill="#5b21b6"/>
  <rect x="40" y="34" width="16" height="20" fill="#7c3aed"/>
  <rect x="53" y="34" width="3"  height="20" fill="#5b21b6"/>
  <rect x="40" y="52" width="16" height="2"  fill="#5b21b6"/>
  <rect x="18" y="20" width="4"  height="4"  fill="#e2e8f0"/>
  <rect x="14" y="24" width="4"  height="4"  fill="#e2e8f0"/>
  <rect x="18" y="24" width="4"  height="4"  fill="#cbd5e1"/>
  <rect x="22" y="24" width="4"  height="4"  fill="#e2e8f0"/>
  <rect x="18" y="28" width="4"  height="4"  fill="#e2e8f0"/>
  <rect x="40" y="20" width="4"  height="4"  fill="#facc15"/>
  <rect x="36" y="24" width="4"  height="4"  fill="#60a5fa"/>
  <rect x="44" y="24" width="4"  height="4"  fill="#f87171"/>
  <rect x="40" y="28" width="4"  height="4"  fill="#4ade80"/>
  <rect x="27" y="26" width="4"  height="2"  fill="#a78bfa"/>
  <rect x="33" y="26" width="4"  height="2"  fill="#a78bfa"/>
  <rect x="12" y="39" width="8"  height="8"  fill="#4c1d95"/>
  <rect x="14" y="41" width="4"  height="4"  fill="#6d28d9"/>
  <rect x="44" y="39" width="8"  height="8"  fill="#4c1d95"/>
  <rect x="46" y="41" width="4"  height="4"  fill="#6d28d9"/>
</svg>
